#define docs_width 10
#define docs_height 10
static unsigned char docs_bits[] = {
   0x00, 0x00, 0xcc, 0x00, 0x94, 0x00, 0x24, 0x00, 0x44, 0x00, 0x84, 0x00,
   0x84, 0x00, 0x84, 0x00, 0xfc, 0x00, 0x00, 0x00 };
