#define emacs_width 10
#define emacs_height 10
static char emacs_bits[] = {
  0x80, 0x01, 0x00, 0x00, 0x70, 0x01, 0xFC, 0x00, 0xF8, 0x00, 0xF8, 0x00, 
  0x20, 0x00, 0x00, 0x00, 0x00, 0x00, 0x00, 0x00, };
