#define wm_default_width 12
#define wm_default_height 12
static unsigned char wm_default_bits[] = {
   0x00, 0x00, 0xff, 0x0f, 0x09, 0x08, 0x09, 0x08, 0x0f, 0x08, 0x09, 0x08,
   0x09, 0x08, 0xff, 0x0f, 0x09, 0x08, 0x09, 0x08, 0xff, 0x0f, 0x00, 0x00 };
