#define wm_float_width 12
#define wm_float_height 12
static unsigned char wm_float_bits[] = {
   0x00, 0x00, 0x00, 0x00, 0xfe, 0x03, 0xfe, 0x03, 0x02, 0x02, 0xf2, 0x07,
   0xf2, 0x07, 0x12, 0x04, 0x1e, 0x04, 0xf0, 0x07, 0x00, 0x00, 0x00, 0x00 };
