#define wm_tall5_width 12
#define wm_tall5_height 12
static unsigned char wm_tall5_bits[] = {
   0x00, 0x00, 0xff, 0x0f, 0x01, 0x08, 0xfd, 0x0b, 0x25, 0x0a, 0xe5, 0x0b,
   0x25, 0x0a, 0x25, 0x0a, 0xfd, 0x0b, 0x01, 0x08, 0xff, 0x0f, 0x00, 0x00 };
